<svg xmlns="http://www.w3.org/2000/svg" viewBox="0 0 64 64" fill="none">
  <defs>
    <linearGradient id="bg" x1="0" y1="0" x2="64" y2="64" gradientUnits="userSpaceOnUse">
      <stop stop-color="#FFF3E0" />
      <stop offset="1" stop-color="#FFE0B2" />
    </linearGradient>
    <linearGradient id="fork" x1="0" y1="0" x2="0" y2="1" gradientUnits="objectBoundingBox">
      <stop stop-color="#E8611A" />
      <stop offset="1" stop-color="#BF4A10" />
    </linearGradient>
  </defs>
  <!-- Rounded square background, warm cream -->
  <rect width="64" height="64" rx="16" fill="url(#bg)" />
  <!-- Fork (left) -->
  <g fill="#E8611A">
    <rect x="17" y="10" width="3" height="12" rx="1.5" />
    <rect x="13" y="10" width="3" height="8" rx="1.5" />
    <rect x="21" y="10" width="3" height="8" rx="1.5" />
    <!-- Fork handle -->
    <rect x="17" y="22" width="3" height="22" rx="1.5" />
    <!-- Tines connector -->
    <rect x="13" y="17" width="11" height="3" rx="1.5" />
  </g>
  <!-- Knife (right) -->
  <g fill="#E8611A">
    <!-- Blade -->
    <path d="M41 10 C41 10 45 12 45 20 L43 20 L43 10 Z" />
    <!-- Handle -->
    <rect x="43" y="20" width="2" height="24" rx="1" />
    <rect x="41" y="20" width="2" height="24" rx="1" />
  </g>
  <!-- Star / rank indicator -->
  <path d="M32 40 L33.4 44.3 L38 44.3 L34.3 46.9 L35.7 51.2 L32 48.6 L28.3 51.2 L29.7 46.9 L26 44.3 L30.6 44.3 Z"
    fill="#E8611A" />
</svg>
